<svg id="Layer_1" data-name="Layer 1" xmlns="http://www.w3.org/2000/svg" viewBox="0 0 122.88 106.65"><defs><style>.cls-1{fill:#fff;}.cls-1,.cls-2{fill-rule:evenodd;}.cls-2{fill:#0e6efd;}</style></defs><title>confused</title><g id="Layer_2" data-name="Layer 2"><g id="Layer_12" data-name="Layer 12"><path class="cls-1" d="M40.53,53.26a93,93,0,0,1,43.37,0,5.49,5.49,0,0,1,3.33,2,5.23,5.23,0,0,1,.75,1L97.82,70l6-16.5a5.23,5.23,0,0,1,2.35-3.22h0l6.72-5a1.63,1.63,0,0,1,2.28.33h0a1.62,1.62,0,0,1-.33,2.27h0l-3.92,2.94c.35.14.71.29,1.06.46l4.3-2.81a1.25,1.25,0,0,1,1.73.36h0a1.26,1.26,0,0,1-.36,1.74L115.47,52h5.61a1.82,1.82,0,0,1,1.8,1.8h0a1.8,1.8,0,0,1-1.8,1.79h-4.86a12.8,12.8,0,0,1-.79,2L105,87.72h0a6.13,6.13,0,0,1-11.07,1.06L84.52,74.33c-1.44,9.08-2.71,23.89-5,32.32H44.9c-2.38-8.78-3.72-24.11-5.22-33.57l-10.2,15.7a6.13,6.13,0,0,1-11.07-1.06h0L8,57.62a14.38,14.38,0,0,1-.8-2H2.3A1.81,1.81,0,0,1,.51,53.81h0A1.8,1.8,0,0,1,2.3,52H7.91L5.72,50.56a1.26,1.26,0,0,1-.37-1.74h0a1.28,1.28,0,0,1,1.74-.36l4.3,2.81c.35-.17.71-.32,1.06-.46L8.52,47.87A1.61,1.61,0,0,1,8.2,45.6h0a1.62,1.62,0,0,1,2.27-.33h0l6.73,5h0a5.23,5.23,0,0,1,2.35,3.22l6,16.5L35.4,56.23a6.49,6.49,0,0,1,5-3h.1Z" transform="translate(0 0)"/></g><g id="Layer_11" data-name="Layer 11"><path class="cls-2" d="M13.53,19.2v-.39a8.94,8.94,0,0,1,.21-2.19,3.36,3.36,0,0,1,.65-1.31,4.74,4.74,0,0,1,1-.9l1-.67a2.88,2.88,0,0,0,.66-.69,1.36,1.36,0,0,0,.25-.83,1.43,1.43,0,0,0-.2-.73,1.37,1.37,0,0,0-.54-.5,1.83,1.83,0,0,0-.76-.17,1.58,1.58,0,0,0-1.41.75,1.49,1.49,0,0,0-.23.85H9.88a5.14,5.14,0,0,1,.83-3A4.78,4.78,0,0,1,12.88,7.8a7.83,7.83,0,0,1,2.95-.54A9,9,0,0,1,19,7.78a4.88,4.88,0,0,1,2.21,1.56A4.15,4.15,0,0,1,22,12a4,4,0,0,1-1.3,3.11,7.42,7.42,0,0,1-1.42,1,5.08,5.08,0,0,0-1,.72,2.7,2.7,0,0,0-.62.84,3,3,0,0,0-.2,1.14v.39Z" transform="translate(0 0)"/></g><g id="Layer_10" data-name="Layer 10"><path class="cls-2" d="M15.53,24.79a2.26,2.26,0,0,1-1.65-.67,2.19,2.19,0,0,1-.68-1.65,2.13,2.13,0,0,1,.68-1.63,2.35,2.35,0,0,1,4,1.52,2.22,2.22,0,0,1-.34,1.28,2.53,2.53,0,0,1-.85.84,2.17,2.17,0,0,1-1.14.31Z" transform="translate(0 0)"/></g><g id="Layer_8" data-name="Layer 8"><path class="cls-1" d="M31.5,3.16a5.47,5.47,0,0,0-1-1.56l-.1-.1A5.11,5.11,0,0,0,26.79,0H5.11A5.11,5.11,0,0,0,1.5,1.5,5.31,5.31,0,0,0,.39,3.16a5,5,0,0,0-.39,2V29.43a5,5,0,0,0,.41,1.91,4.84,4.84,0,0,0,1,1.56l.09.1a5.11,5.11,0,0,0,3.61,1.54H15.6l6.93,5.58a1.59,1.59,0,0,0,.94.42,1.55,1.55,0,0,0,1.67-1.42l.41-4.62h1.24A5.11,5.11,0,0,0,30.4,33a5.4,5.4,0,0,0,1.1-1.62,5,5,0,0,0,.39-1.95V5.16A5.24,5.24,0,0,0,31.5,3.16Zm-2.72,26.3a1.9,1.9,0,0,1-.58,1.41,2.23,2.23,0,0,1-.65.45,2.18,2.18,0,0,1-.76.14H24.7a2.47,2.47,0,0,0-2.21,2.44L22.31,36l-4.77-3.87a2.46,2.46,0,0,0-1.71-.7H5.12a2.18,2.18,0,0,1-.76-.14,2.23,2.23,0,0,1-.65-.45l-.07-.06a1.9,1.9,0,0,1-.37-.59,2,2,0,0,1-.15-.76V5.11A2,2,0,0,1,3.7,3.7a2,2,0,0,1,.65-.44,2,2,0,0,1,.76-.15H26.79a2,2,0,0,1,.76.15,2,2,0,0,1,.65.44l.06.06a1.93,1.93,0,0,1,.38.59,2.18,2.18,0,0,1,.14.76Z" transform="translate(0 0)"/></g><g id="Layer_7" data-name="Layer 7"><path class="cls-2" d="M102.65,26.48v-.4a8.91,8.91,0,0,1,.21-2.18,3.47,3.47,0,0,1,.65-1.32,5,5,0,0,1,1-.89l1-.68a2.84,2.84,0,0,0,.66-.68,1.42,1.42,0,0,0,.25-.83,1.47,1.47,0,0,0-.2-.74,1.34,1.34,0,0,0-.54-.49,1.83,1.83,0,0,0-.76-.17,1.67,1.67,0,0,0-.82.21,1.46,1.46,0,0,0-.61.57,1.49,1.49,0,0,0-.23.85H99a5.14,5.14,0,0,1,.83-3A4.81,4.81,0,0,1,102,15.07a7.92,7.92,0,0,1,3-.53,9.07,9.07,0,0,1,3.18.52,4.82,4.82,0,0,1,2.21,1.56,4.2,4.2,0,0,1,.8,2.61,4.3,4.3,0,0,1-.34,1.77,4.09,4.09,0,0,1-1,1.33,7.72,7.72,0,0,1-1.42,1.06,5.08,5.08,0,0,0-1,.72,2.33,2.33,0,0,0-.62.84,2.9,2.9,0,0,0-.2,1.13v.4Z" transform="translate(0 0)"/></g><g id="Layer_6" data-name="Layer 6"><path class="cls-2" d="M104.65,32.07a2.27,2.27,0,0,1-1.65-.68,2.19,2.19,0,0,1-.68-1.65,2.12,2.12,0,0,1,.68-1.62,2.32,2.32,0,0,1,3.26,0,2.22,2.22,0,0,1,.72,1.62,2.25,2.25,0,0,1-.34,1.18,2.53,2.53,0,0,1-.85.84A2.17,2.17,0,0,1,104.65,32.07Z" transform="translate(0 0)"/></g><g id="Layer_4" data-name="Layer 4"><path class="cls-1" d="M119.51,9.16a5.18,5.18,0,0,0-3.61-1.51H94.22v0a4.9,4.9,0,0,0-2,.4,5,5,0,0,0-1.66,1.11l-.1.1a5.13,5.13,0,0,0-1.39,3.55v20.5a5.08,5.08,0,0,0,1.5,3.61A5.31,5.31,0,0,0,92.22,38a5.24,5.24,0,0,0,2,.39h1.24L95.87,43v0a1.54,1.54,0,0,0,1.68,1.39,1.48,1.48,0,0,0,.93-.42l6.93-5.61H115.9a5,5,0,0,0,1.95-.39,5.48,5.48,0,0,0,1.67-1.09l.1-.11A5.13,5.13,0,0,0,121,33.25V12.77A5.08,5.08,0,0,0,119.51,9.16Zm-1.6,24.14a2,2,0,0,1-.53,1.36l-.07.06a2,2,0,0,1-.65.44,2,2,0,0,1-.76.15H105.18a2.54,2.54,0,0,0-.94.19,2.33,2.33,0,0,0-.77.5l-4.78,3.8-.18-2.11a2.47,2.47,0,0,0-2.21-2.43H94.21a2,2,0,0,1-.76-.15,2,2,0,0,1-.65-.44,2.4,2.4,0,0,1-.44-.65,2.28,2.28,0,0,1-.14-.77V12.77a2.28,2.28,0,0,1,.14-.77,1.93,1.93,0,0,1,.38-.59l.07-.06a2,2,0,0,1,.65-.44,2,2,0,0,1,.76-.15h21.69a2,2,0,0,1,.76.15,2,2,0,0,1,.65.44,2.4,2.4,0,0,1,.44.65,2.07,2.07,0,0,1,.15.77Z" transform="translate(0 0)"/></g><g id="Layer_3" data-name="Layer 3"><path class="cls-1" d="M61.34,6.59A20.14,20.14,0,1,1,41.21,26.74v0A20.14,20.14,0,0,1,61.34,6.59Z" transform="translate(0 0)"/></g></g></svg>