<svg id="Layer_1" data-name="Layer 1" xmlns="http://www.w3.org/2000/svg" viewBox="0 0 109.92 122.87"><defs><style>.cls-1{fill:#0e6efd;}.cls-1,.cls-2{fill-rule:evenodd;}.cls-2{fill:#fdfeff;}</style></defs><title>gear</title><g id="Layer_2" data-name="Layer 2"><g id="Layer_5" data-name="Layer 5"><path class="cls-1" d="M45,116A55,55,0,0,1,41.37,8.8l1.78,6.86A47.87,47.87,0,0,0,45,108.75v-7.33l13.39,11L45,123.4V116Z" transform="translate(-0.25 -0.53)"/></g><g id="Layer_4" data-name="Layer 4"><path class="cls-1" d="M65.44,8a55,55,0,0,1,7.41,106.06l-1.14-3.36-1.14-3.36.83-.29a47.87,47.87,0,0,0-6-91.81v7.29l-13.38-11L65.44.53V8Z" transform="translate(-0.25 -0.53)"/></g><g id="Layer_3" data-name="Layer 3"><path class="cls-2" d="M84.21,58.34a4.37,4.37,0,0,0-.86-1.28l0,0A3.77,3.77,0,0,0,82,56.14a4.19,4.19,0,0,0-1.55-.3H77.31a4.5,4.5,0,0,0-.14-.49c-.14-.49-.31-1-.49-1.44a.08.08,0,0,0,0-.07c-.19-.48-.38-.92-.56-1.32-.07-.15-.16-.31-.23-.47l2.55-2.6a3.88,3.88,0,0,0,.9-4.37,3.94,3.94,0,0,0-.88-1.3l0,0-4-4a3.81,3.81,0,0,0-1.3-.9,3.91,3.91,0,0,0-3.1,0,4.34,4.34,0,0,0-1.3.9L66.5,42l-.42-.23c-.44-.23-.9-.44-1.37-.67s-.94-.42-1.41-.6l-.53-.19V36.69a4.15,4.15,0,0,0-.3-1.55A4.15,4.15,0,0,0,60.29,33a4.23,4.23,0,0,0-1.55-.3H53a4.11,4.11,0,0,0-1.51.3,4.37,4.37,0,0,0-1.28.86l0,0a3.77,3.77,0,0,0-.88,1.28,4.19,4.19,0,0,0-.3,1.55v3.17c-.16,0-.31.09-.49.14-.49.14-1,.31-1.44.49s-1,.39-1.39.58l-.49.23-2.55-2.55a4,4,0,0,0-1.27-.9,3.91,3.91,0,0,0-3.1,0,3.94,3.94,0,0,0-1.3.88l-4,4s0,0,0,0a4.11,4.11,0,0,0-.83,1.3,4.21,4.21,0,0,0,0,3,4.14,4.14,0,0,0,.84,1.3l.05,0,2.27,2.23c-.07.14-.16.28-.23.42-.23.44-.44.89-.67,1.37s-.42.94-.6,1.41c-.07.18-.12.35-.19.53H30a4.15,4.15,0,0,0-1.55.3,3.94,3.94,0,0,0-1.3.88,3.82,3.82,0,0,0-1.18,2.85v5.7a4.11,4.11,0,0,0,.3,1.51,4.37,4.37,0,0,0,.86,1.28l0,0a3.77,3.77,0,0,0,1.28.88,4.19,4.19,0,0,0,1.55.3h3.17a4.5,4.5,0,0,0,.14.49c.14.49.31,1,.49,1.44s.39,1,.58,1.39c.07.16.14.31.23.49L32,74.49a3.81,3.81,0,0,0-.9,1.28,4,4,0,0,0-.32,1.57,3.83,3.83,0,0,0,.32,1.57,3.87,3.87,0,0,0,.9,1.28l4,4s0,0,0,0a4.11,4.11,0,0,0,1.3.83,4.21,4.21,0,0,0,3,0,4.14,4.14,0,0,0,1.3-.84l.05,0,2.23-2.27.42.23c.44.23.9.44,1.37.67s.94.42,1.41.6l.53.19v3.62a4.15,4.15,0,0,0,.3,1.55A4.15,4.15,0,0,0,50.14,91a4.23,4.23,0,0,0,1.55.3h5.7A4.11,4.11,0,0,0,58.9,91a4.2,4.2,0,0,0,1.3-.86l0,0a3.77,3.77,0,0,0,.88-1.28,4.19,4.19,0,0,0,.3-1.55V84.07a3.94,3.94,0,0,0,.49-.14c.51-.16,1-.31,1.42-.49a.08.08,0,0,0,.07,0c.44-.17.9-.35,1.34-.56l.47-.23,2.6,2.57a4,4,0,0,0,1.27.9,3.91,3.91,0,0,0,3.1,0,3.94,3.94,0,0,0,1.3-.88l0,0,4-4a3.94,3.94,0,0,0,.88-1.3l-.07,0a3.91,3.91,0,0,0,0-3.1,4.34,4.34,0,0,0-.9-1.3l-2.23-2.23c.07-.14.16-.28.23-.42.23-.44.44-.9.67-1.37s.42-.94.6-1.41c.07-.18.12-.35.19-.53h3.62A4.15,4.15,0,0,0,82,69.3a3.94,3.94,0,0,0,1.3-.88,4,4,0,0,0,1.18-2.87v-5.7A4.11,4.11,0,0,0,84.21,58.34ZM65,64h0a9.88,9.88,0,0,1-1.47,3.57A8.29,8.29,0,0,1,62.3,69a9.81,9.81,0,0,1-1.46,1.2,11,11,0,0,1-1.71.91l-.07,0a10.2,10.2,0,0,1-1.78.53,10.52,10.52,0,0,1-4,0,9.88,9.88,0,0,1-3.57-1.47A9.42,9.42,0,0,1,48.27,69a10.33,10.33,0,0,1-1.18-1.46,11,11,0,0,1-.91-1.71s0,0,0-.07A10.2,10.2,0,0,1,45.61,64a10.52,10.52,0,0,1,0-4,9.88,9.88,0,0,1,1.47-3.57A8.29,8.29,0,0,1,48.26,55a9.81,9.81,0,0,1,1.46-1.2,12,12,0,0,1,1.71-.92l.07,0a11.15,11.15,0,0,1,1.79-.53,10.52,10.52,0,0,1,4,0,9.54,9.54,0,0,1,1.86.56,9,9,0,0,1,1.71.92A9.42,9.42,0,0,1,62.3,55a10.33,10.33,0,0,1,1.18,1.46,11,11,0,0,1,.91,1.71s0,0,0,.07A10.2,10.2,0,0,1,65,60a10,10,0,0,1,.2,2A10.75,10.75,0,0,1,65,64Z" transform="translate(-0.25 -0.53)"/></g></g></svg>